<mxfile host="app.diagrams.net" modified="2022-02-10T03:58:47.086Z" agent="5.0 (Windows NT 10.0; Win64; x64) AppleWebKit/537.36 (KHTML, like Gecko) Chrome/72.0.3626.119 Safari/537.36" etag="mqiYIriDirD0ZastcW4n" version="16.4.7" type="github">
  <diagram id="zJLA-6uuFh9aqzemILrz" name="第 1 页">
    <mxGraphModel dx="1422" dy="713" grid="1" gridSize="10" guides="1" tooltips="1" connect="1" arrows="1" fold="1" page="1" pageScale="1" pageWidth="827" pageHeight="1169" math="0" shadow="0">
      <root>
        <mxCell id="0" />
        <mxCell id="1" parent="0" />
        <mxCell id="wCUVA2ET7UTk1HlwlOgX-2" value="负载均衡调度服务器" style="rounded=1;whiteSpace=wrap;html=1;" vertex="1" parent="1">
          <mxGeometry x="50" y="290" width="120" height="60" as="geometry" />
        </mxCell>
        <mxCell id="wCUVA2ET7UTk1HlwlOgX-5" value="&amp;nbsp; &amp;nbsp; &amp;nbsp;应用服务器n&lt;br&gt;&lt;br&gt;&lt;br&gt;&lt;br&gt;&lt;br&gt;&lt;br&gt;&lt;br&gt;&lt;br&gt;&lt;br&gt;" style="rounded=1;whiteSpace=wrap;html=1;align=left;" vertex="1" parent="1">
          <mxGeometry x="280" y="170" width="170" height="150" as="geometry" />
        </mxCell>
        <mxCell id="wCUVA2ET7UTk1HlwlOgX-8" value="&amp;nbsp; &amp;nbsp; &amp;nbsp;应用服务器2&lt;br&gt;&lt;br&gt;&lt;br&gt;&lt;br&gt;&lt;br&gt;&lt;br&gt;&lt;br&gt;&lt;br&gt;&lt;br&gt;" style="rounded=1;whiteSpace=wrap;html=1;align=left;" vertex="1" parent="1">
          <mxGeometry x="304" y="200" width="170" height="150" as="geometry" />
        </mxCell>
        <mxCell id="wCUVA2ET7UTk1HlwlOgX-9" value="&amp;nbsp; &amp;nbsp; &amp;nbsp;应用服务器3&lt;br&gt;&lt;br&gt;&lt;br&gt;&lt;br&gt;&lt;br&gt;&lt;br&gt;&lt;br&gt;&lt;br&gt;&lt;br&gt;" style="rounded=1;whiteSpace=wrap;html=1;align=left;" vertex="1" parent="1">
          <mxGeometry x="320" y="230" width="170" height="150" as="geometry" />
        </mxCell>
        <mxCell id="wCUVA2ET7UTk1HlwlOgX-10" value="应用程序" style="shape=parallelogram;perimeter=parallelogramPerimeter;whiteSpace=wrap;html=1;fixedSize=1;" vertex="1" parent="1">
          <mxGeometry x="360" y="280" width="76" height="40" as="geometry" />
        </mxCell>
        <mxCell id="wCUVA2ET7UTk1HlwlOgX-11" value="本地缓存" style="shape=tape;whiteSpace=wrap;html=1;size=0.5;" vertex="1" parent="1">
          <mxGeometry x="340" y="340" width="60" height="40" as="geometry" />
        </mxCell>
        <mxCell id="wCUVA2ET7UTk1HlwlOgX-12" value="数据模块" style="rounded=1;whiteSpace=wrap;html=1;" vertex="1" parent="1">
          <mxGeometry x="414" y="330" width="60" height="30" as="geometry" />
        </mxCell>
      </root>
    </mxGraphModel>
  </diagram>
</mxfile>
